<?xml version="1.0" encoding="UTF-8" standalone="no"?>
<!DOCTYPE svg PUBLIC "-//W3C//DTD SVG 1.1//EN" "http://www.w3.org/Graphics/SVG/1.1/DTD/svg11.dtd">
<svg width="100%" height="100%" viewBox="0 0 181 180" version="1.1" xmlns="http://www.w3.org/2000/svg" xmlns:xlink="http://www.w3.org/1999/xlink" xml:space="preserve" xmlns:serif="http://www.serif.com/" style="fill-rule:evenodd;clip-rule:evenodd;stroke-linejoin:round;stroke-miterlimit:2;">
    <rect x="0" y="0" width="180.001" height="180" style="fill:rgb(50,50,50);"/>
    <g transform="matrix(1,0,0,1,96.5717,21.0541)">
        <path d="M0,46.56L23.387,23.173L0.107,0L7.368,-7.155C9.931,-9.718 14.096,-9.611 16.552,-7.155L42.395,18.795C44.958,21.358 44.851,25.523 42.395,27.979L16.339,53.715C13.776,56.278 9.611,56.171 7.155,53.715L0,46.56Z" style="fill:rgb(248,204,50);"/>
    </g>
    <g transform="matrix(1,0,0,1,51.934,30.1312)">
        <path d="M0,-9.077L38.017,-9.077L38.017,-3.31C38.017,-1.495 36.522,0 34.706,0L-3.31,0L-3.31,-5.767C-3.31,-7.582 -1.815,-9.077 0,-9.077" style="fill:rgb(98,179,216);fill-rule:nonzero;"/>
    </g>
    <g transform="matrix(1,0,0,1,41.5755,67.614)">
        <path d="M0,-9.077L38.017,-9.077L38.017,-3.31C38.017,-1.495 36.522,0 34.706,0L-3.31,0L-3.31,-5.767C-3.31,-7.582 -1.815,-9.077 0,-9.077" style="fill:rgb(98,179,216);fill-rule:nonzero;"/>
    </g>
    <g transform="matrix(1,0,0,1,46.7014,49.5667)">
        <path d="M0,-9.077L38.017,-9.077L38.017,-3.31C38.017,-1.495 36.522,0 34.706,0L-3.31,0L-3.31,-5.767C-3.31,-7.582 -1.815,-9.077 0,-9.077" style="fill:rgb(248,204,50);fill-rule:nonzero;"/>
    </g>
    <g transform="matrix(1,0,0,1,0,114.237)">
        <path d="M129.783,30.478L117.502,30.478L117.502,22.042L129.783,22.042L129.783,30.478ZM129.783,15.208L116.221,15.208C113.231,15.208 110.775,17.664 110.775,20.654L110.775,50.555L117.502,50.555L117.502,37.206L129.783,37.206L129.783,50.555L136.511,50.555L136.511,15.314L129.783,15.208Z" style="fill:rgb(98,179,216);fill-rule:nonzero;"/>
    </g>
    <g transform="matrix(1,0,0,1,0,114.237)">
        <path d="M57.273,30.478L44.992,30.478L44.992,22.042L57.273,22.042L57.273,30.478ZM38.265,20.654L38.265,50.555L44.993,50.555L44.993,37.206L58.555,37.206C61.545,37.206 64.001,34.75 64.001,31.76L64.001,20.654C64.001,17.664 61.545,15.208 58.555,15.208L43.711,15.208C40.614,15.208 38.265,17.664 38.265,20.654" style="fill:rgb(98,179,216);fill-rule:nonzero;"/>
    </g>
    <g transform="matrix(1,0,0,1,74.1461,164.578)">
        <path d="M0,-35.133L1.281,-35.133L1.281,-6.727L9.825,-6.727L9.825,-35.133L16.552,-35.133L16.552,-6.727L25.095,-6.727L25.095,-35.133L31.823,-35.133L31.823,0L-5.553,0L-5.553,-29.687C-5.446,-32.677 -2.99,-35.133 0,-35.133" style="fill:rgb(98,179,216);fill-rule:nonzero;"/>
    </g>
    <g transform="matrix(1,0,0,1,75.7479,93.777)">
        <path d="M0.32,26.911L-6.728,26.911L-6.728,6.835L-15.271,6.835L-15.271,26.911L-21.998,26.911L-21.998,6.835L-30.542,6.835L-30.542,26.911L-37.269,26.911L-37.269,5.767C-37.269,2.563 -34.706,0 -31.503,0L0.32,0L0.32,26.911Z" style="fill:rgb(98,179,216);fill-rule:nonzero;"/>
    </g>
    <g transform="matrix(-1,0,0,1,174.882,34.572)">
        <rect x="84.077" y="59.312" width="6.728" height="26.804" style="fill:rgb(248,204,50);"/>
    </g>
    <g transform="matrix(1,0,0,1,122.949,113.854)">
        <path d="M0,-21.785L-10.145,-21.785L-10.145,6.834L-16.873,6.834L-16.873,-21.785L-27.018,-21.785L-27.018,-22.853C-27.018,-26.057 -24.455,-28.619 -21.251,-28.619L0,-28.619L0,-21.785Z" style="fill:rgb(98,179,216);fill-rule:nonzero;"/>
    </g>
    <g transform="matrix(1,0,0,1,137.151,113.854)">
        <path d="M0,-21.785L-4.378,-21.785L-4.378,6.834L-11.106,6.834L-11.106,-21.785L-21.251,-21.785L-21.251,-22.853C-21.251,-26.057 -18.688,-28.619 -15.484,-28.619L5.767,-28.619L5.767,-27.552C5.66,-24.348 3.097,-21.785 0,-21.785" style="fill:rgb(98,179,216);fill-rule:nonzero;"/>
    </g>
    <g transform="matrix(1,0,0,1,90.8051,92.0682)">
        <path d="M0,-6.834L0,0L-6.728,0L-6.728,-1.067C-6.728,-4.271 -4.165,-6.834 -0.961,-6.834L0,-6.834Z" style="fill:rgb(248,204,50);fill-rule:nonzero;"/>
    </g>
</svg>
