<?xml version="1.0" encoding="UTF-8"?><svg id="uuid-f4d0530d-a904-47c4-820c-42f81a6011d4" xmlns="http://www.w3.org/2000/svg" viewBox="0 0 182.97 182.97"><defs><style>.uuid-187bc006-9b24-41ee-98ed-0cf14be97ab9,.uuid-eb23963f-2798-4aeb-8c56-300ab8dc8005{fill:#f8cc32;}.uuid-eb02a2ad-1007-4eb1-bdc5-2ecf5b0dbefb{fill:#323232;}.uuid-fa6612b0-9f05-43d5-a044-077214caa939{fill:#62b3d8;}.uuid-eb23963f-2798-4aeb-8c56-300ab8dc8005{fill-rule:evenodd;}</style></defs><rect class="uuid-eb02a2ad-1007-4eb1-bdc5-2ecf5b0dbefb" width="182.97" height="182.97"/><g id="uuid-c551f178-db33-41ae-8a42-7d892f3be97a"><g><g><path id="uuid-87ed8878-f910-49be-b730-2b143f40e479" class="uuid-eb23963f-2798-4aeb-8c56-300ab8dc8005" d="M98.24,69.71l23.39-23.39-23.28-23.17,7.26-7.15c2.56-2.56,6.73-2.46,9.18,0l25.84,25.95c2.56,2.56,2.46,6.73,0,9.18l-26.06,25.74c-2.56,2.56-6.73,2.46-9.18,0l-7.15-7.15"/><path class="uuid-fa6612b0-9f05-43d5-a044-077214caa939" d="M53.61,23.15h38.02v5.77c0,1.82-1.5,3.31-3.31,3.31H50.3v-5.77c0-1.82,1.5-3.31,3.31-3.31Z"/><path class="uuid-fa6612b0-9f05-43d5-a044-077214caa939" d="M43.25,60.63h38.02v5.77c0,1.82-1.5,3.31-3.31,3.31H39.94v-5.77c0-1.82,1.5-3.31,3.31-3.31Z"/><path class="uuid-187bc006-9b24-41ee-98ed-0cf14be97ab9" d="M48.37,42.59h38.02v5.77c0,1.82-1.5,3.31-3.31,3.31H45.06v-5.77c0-1.82,1.5-3.31,3.31-3.31Z"/></g><path class="uuid-fa6612b0-9f05-43d5-a044-077214caa939" d="M131.46,131.54h-13.56c-2.99,0-5.45,2.46-5.45,5.45v29.9h6.73v-13.35h12.28v13.35h6.73v-35.24l-6.73-.11h0Zm0,15.27h-12.28v-8.44h12.28v8.44Z"/><path class="uuid-fa6612b0-9f05-43d5-a044-077214caa939" d="M39.94,136.99v29.9h6.73v-13.35h13.56c2.99,0,5.45-2.46,5.45-5.45v-11.11c0-2.99-2.46-5.45-5.45-5.45h-14.84c-3.1,0-5.45,2.46-5.45,5.45Zm19.01,9.82h-12.28v-8.44h12.28v8.44Z"/><path class="uuid-fa6612b0-9f05-43d5-a044-077214caa939" d="M75.82,131.54h1.28v28.41h8.54v-28.41h6.73v28.41h8.54v-28.41h6.73v35.13h-37.38v-29.69c.11-2.99,2.56-5.45,5.55-5.45h0Z"/><path class="uuid-fa6612b0-9f05-43d5-a044-077214caa939" d="M77.42,122.78h-6.73v-20.08h-8.54v20.08h-6.73v-20.08h-8.54v20.08h-6.73v-21.14c0-3.2,2.56-5.77,5.77-5.77h31.82v26.91h-.32Z"/><path class="uuid-187bc006-9b24-41ee-98ed-0cf14be97ab9" d="M92.48,95.98v26.8h-6.73v-26.8h6.73Z"/><path class="uuid-fa6612b0-9f05-43d5-a044-077214caa939" d="M124.62,94.16h-10.14v28.62h-6.73v-28.62h-10.14v-1.07c0-3.2,2.56-5.77,5.77-5.77h21.25v6.83h0Z"/><path class="uuid-fa6612b0-9f05-43d5-a044-077214caa939" d="M138.82,94.16h-4.38v28.62h-6.73v-28.62h-10.14v-1.07c0-3.2,2.56-5.77,5.77-5.77h21.25v1.07c-.11,3.2-2.67,5.77-5.77,5.77h0Z"/><path class="uuid-187bc006-9b24-41ee-98ed-0cf14be97ab9" d="M92.48,87.33v6.83h-6.73v-1.07c0-3.2,2.56-5.77,5.77-5.77h.96Z"/></g></g></svg>